# File created by Blade
# Date/Time:  Wed Jan 21 14:43:43 2015
#---------------------------------------------------------
:version 1.10
:name HOM
:units
  mass 1.0
  length 1.000000
  angle deg
:documentation
     Acclaim Skeleton File
:root
   axis xyz
   order TX TY TZ RX RY RZ
   position 0.000000 0.000000 0.000000
   orientation 0 0 0
:bonedata
   begin
      id 1
      name Spine_dum
      direction 0.000000 1.000000 0.000000
      length 7.067664
      axis 0.0 0.0 0.0 xyz
   end
   begin
      id 2
      name LeftUpLeg_dum
      direction 1.000000 0.000000 0.000000
      length 4.013002
      axis 0.0 0.0 0.0 xyz
   end
   begin
      id 3
      name RightUpLeg_dum
      direction -1.000000 0.000000 0.000000
      length 4.013002
      axis 0.0 0.0 0.0 xyz
   end
   begin
      id 4
      name Spine
      direction 0.000000 1.000000 0.000000
      length 0.000000
      axis 0.0 0.0 0.0 xyz
      dof rx ry rz
   end
   begin
      id 5
      name Spine_dum1
      direction 0.000000 1.000000 0.000000
      length 15.039886
      axis 0.0 0.0 0.0 xyz
   end
   begin
      id 6
      name Spine_dum2
      direction 0.000000 1.000000 0.000000
      length 10.530368
      axis 0.0 0.0 0.0 xyz
   end
   begin
      id 7
      name Spine_dum3
      direction 0.000000 1.000000 0.000000
      length 10.530368
      axis 0.0 0.0 0.0 xyz
   end
   begin
      id 8
      name Head
      direction 0.000000 1.000000 0.000000
      length 4.527550
      axis 0.0 0.0 0.0 xyz
      dof rx ry rz
   end
   begin
      id 9
      name LeftShoulder
      direction 1.000000 0.000000 0.000000
      length 7.028855
      axis 0.0 0.0 -90.0 xyz
      dof rx ry rz
   end
   begin
      id 10
      name LeftArm
      direction 1.000000 0.000000 0.000000
      length 10.797705
      axis 0.0 0.0 -90.0 xyz
      dof rx ry rz
   end
   begin
      id 11
      name LeftForeArm
      direction 1.000000 0.000000 0.000000
      length 7.907442
      axis 0.0 0.0 -90.0 xyz
      dof ry rz rx
   end
   begin
      id 12
      name LeftHand
      direction 0.000000 0.000000 0.000000
      length 0.000000
      axis 0.0 0.0 -90.0 xyz
      dof rx ry rz
   end
   begin
      id 13
      name LeftHand_dum1
      direction 0.000000 0.000000 0.000000
      length 0.000000
      axis 0.0 0.0 -90.0 xyz
   end
   begin
      id 14
      name LeftHand_dum2
      direction 1.000000 0.000000 0.000000
      length 3.937000
      axis 0.0 0.0 -90.0 xyz
   end
   begin
      id 15
      name LeftHandThumb1
      direction 0.000000 0.000000 1.000000
      length 3.937000
      axis 0.0 0.0 -90.0 xyz
      dof rx rz ry
   end
   begin
      id 16
      name RightShoulder
      direction -1.000000 0.000000 0.000000
      length 7.028855
      axis 0.0 0.0 90.0 xyz
      dof rx ry rz
   end
   begin
      id 17
      name RightArm
      direction -1.000000 0.000000 0.000000
      length 10.797705
      axis 0.0 0.0 90.0 xyz
      dof rx ry rz
   end
   begin
      id 18
      name RightForeArm
      direction -1.000000 0.000000 0.000000
      length 7.907442
      axis 0.0 0.0 90.0 xyz
      dof ry rz rx
   end
   begin
      id 19
      name RightHand
      direction 0.000000 0.000000 0.000000
      length 0.000000
      axis 0.0 0.0 90.0 xyz
      dof rx ry rz
   end
   begin
      id 20
      name RightHand_dum1
      direction 0.000000 0.000000 0.000000
      length 0.000000
      axis 0.0 0.0 90.0 xyz
   end
   begin
      id 21
      name RightHand_dum2
      direction -1.000000 0.000000 0.000000
      length 3.937000
      axis 0.0 0.0 90.0 xyz
   end
   begin
      id 22
      name RightHandThumb1
      direction 0.000000 0.000000 1.000000
      length 3.937000
      axis 0.0 0.0 90.0 xyz
      dof rx rz ry
   end
   begin
      id 23
      name LeftUpLeg
      direction 0.000000 -1.000000 0.000000
      length 16.899758
      axis 0.0 0.0 0.0 xyz
      dof rx ry rz
   end
   begin
      id 24
      name LeftLeg
      direction 0.000000 -1.000000 0.000000
      length 17.389183
      axis 0.0 0.0 0.0 xyz
      dof rx ry rz
   end
   begin
      id 25
      name LeftFoot
      direction 0.000000 -0.258819 0.965926
      length 4.924528
      axis 15.0 0.0 0.0 xyz
      dof rx ry rz
   end
   begin
      id 26
      name LeftToeBase
      direction 0.000000 0.000000 1.000000
      length 2.952750
      axis 0.0 0.0 0.0 xyz
      dof rx ry rz
   end
   begin
      id 27
      name RightUpLeg
      direction 0.000000 -1.000000 0.000000
      length 16.899758
      axis 0.0 0.0 0.0 xyz
      dof rx ry rz
   end
   begin
      id 28
      name RightLeg
      direction 0.000000 -1.000000 0.000000
      length 17.389183
      axis 0.0 0.0 0.0 xyz
      dof rx ry rz
   end
   begin
      id 29
      name RightFoot
      direction 0.000000 -0.258819 0.965926
      length 4.924528
      axis 15.0 0.0 0.0 xyz
      dof rx ry rz
   end
   begin
      id 30
      name RightToeBase
      direction 0.000000 0.000000 1.000000
      length 2.952750
      axis 0.0 0.0 0.0 xyz
      dof rx ry rz
   end
:hierarchy
   begin
      root Spine_dum LeftUpLeg_dum RightUpLeg_dum
      Spine_dum Spine
      LeftUpLeg_dum LeftUpLeg
      RightUpLeg_dum RightUpLeg
      Spine Spine_dum1 Spine_dum2 Spine_dum3
      Spine_dum1 Head
      Spine_dum2 LeftShoulder
      Spine_dum3 RightShoulder
      LeftShoulder LeftArm
      LeftArm LeftForeArm
      LeftForeArm LeftHand
      LeftHand LeftHand_dum1 LeftHand_dum2
      LeftHand_dum1 LeftHandThumb1
      RightShoulder RightArm
      RightArm RightForeArm
      RightForeArm RightHand
      RightHand RightHand_dum1 RightHand_dum2
      RightHand_dum1 RightHandThumb1
      LeftUpLeg LeftLeg
      LeftLeg LeftFoot
      LeftFoot LeftToeBase
      RightUpLeg RightLeg
      RightLeg RightFoot
      RightFoot RightToeBase
   end

# File created by Blade
# Date/Time:  Wed Jan 21 14:43:55 2015
# Frame Rate: 120.000 fps
#------------------------------------------------------
:FULLY-SPECIFIED
:DEGREES
114
root 18.790873 35.279001 -22.050217 -173.992202 -2.164392 180.293262
Spine -17.929861 -0.323422 0.093170
Head 9.917019 -2.202948 0.930145
LeftShoulder -13.479030 -30.758375 19.226956
LeftArm 7.190878 11.262216 -8.800562
LeftForeArm 9.466296 -0.000000 1.973050
LeftHand -5.843480 -0.000000 -6.290181
LeftHandThumb1 -26.253704 0.000000 33.147579
RightShoulder -12.567457 -4.850358 -8.212462
RightArm 10.346195 29.821384 10.794134
RightForeArm -32.657429 -0.000000 9.328725
RightHand -7.610554 -0.000000 3.871662
RightHandThumb1 -24.326973 -0.000000 -32.862282
LeftUpLeg 4.014704 8.773623 1.627571
LeftLeg -6.863667 -0.000000 0.000000
LeftFoot -21.597762 28.582107 -11.983544
LeftToeBase 27.419481 -0.000000 -0.000000
RightUpLeg 3.442283 -7.974195 -2.910773
RightLeg -3.288379 -0.000000 0.000000
RightFoot -22.822556 -23.221735 15.788296
RightToeBase 25.389832 -0.000000 -0.000000
115
root 18.794413 35.279601 -22.044593 -174.005589 -2.180334 180.291756
Spine -17.873168 -0.335028 0.072184
Head 9.883444 -2.252949 0.918767
LeftShoulder -13.456365 -30.490424 18.948513
LeftArm 7.265206 11.944081 -8.787750
LeftForeArm 9.248977 0.000000 3.020271
LeftHand -5.790701 -0.000000 -6.556367
LeftHandThumb1 -26.253704 0.000000 33.147579
RightShoulder -12.484300 -5.055770 -7.993833
RightArm 9.949617 29.138385 10.790525
RightForeArm -32.069593 -0.000000 10.707889
RightHand -7.471862 -0.000000 3.764073
RightHandThumb1 -24.326973 -0.000000 -32.862282
LeftUpLeg 4.010979 8.773008 1.632587
LeftLeg -6.856044 -0.000000 0.000000
LeftFoot -21.584814 28.582606 -11.959380
LeftToeBase 27.413505 -0.000000 -0.000000
RightUpLeg 3.444682 -7.969249 -2.904261
RightLeg -3.281322 -0.000000 0.000000
RightFoot -22.826312 -23.251540 15.780290
RightToeBase 25.367794 -0.000000 -0.000000
116
root 18.797179 35.280616 -22.038843 -174.023853 -2.187442 180.289364
Spine -17.802225 -0.339236 0.061152
Head 9.836175 -2.291512 0.887884
LeftShoulder -13.461816 -30.166473 18.657964
LeftArm 7.308390 12.522507 -8.811463
LeftForeArm 9.195451 0.000000 4.310134
LeftHand -5.744795 0.000000 -7.064465
LeftHandThumb1 -26.253704 0.000000 33.147579
RightShoulder -12.472183 -5.339855 -7.765097
RightArm 9.697889 28.495546 10.912635
RightForeArm -31.460950 -0.000000 12.240071
RightHand -7.457051 0.000000 3.565445
RightHandThumb1 -24.326973 -0.000000 -32.862282
LeftUpLeg 4.015303 8.790446 1.636653
LeftLeg -6.850361 -0.000000 0.000000
LeftFoot -21.563588 28.560560 -11.945486
LeftToeBase 27.428988 -0.000000 -0.000000
RightUpLeg 3.458128 -7.948914 -2.904541
RightLeg -3.288112 -0.000000 0.000000
RightFoot -22.812935 -23.248254 15.824609
RightToeBase 25.276813 -0.000000 -0.000000
117
root 18.800397 35.281166 -22.031885 -174.049886 -2.194398 180.290725
Spine -17.717163 -0.335590 0.055296
Head 9.779355 -2.351754 0.832102
LeftShoulder -13.469318 -29.784979 18.347915
LeftArm 7.340687 13.116648 -8.861285
LeftForeArm 9.000810 -0.000000 5.778415
LeftHand -5.621423 -0.000000 -7.514427
LeftHandThumb1 -26.253704 0.000000 33.147579
RightShoulder -12.478130 -5.646260 -7.494570
RightArm 9.409121 27.633810 10.952214
RightForeArm -30.705079 -0.000000 13.916999
RightHand -7.392667 -0.000000 3.350967
RightHandThumb1 -24.326973 -0.000000 -32.862282
LeftUpLeg 4.026708 8.809741 1.645741
LeftLeg -6.850565 -0.000000 0.000000
LeftFoot -21.543007 28.552298 -11.933211
LeftToeBase 27.411697 -0.000000 -0.000000
RightUpLeg 3.469914 -7.945457 -2.898234
RightLeg -3.281752 -0.000000 0.000000
RightFoot -22.827314 -23.291286 15.788412
RightToeBase 25.370804 -0.000000 -0.000000
118
root 18.804613 35.281694 -22.025320 -174.052063 -2.197829 180.296876
Spine -17.664103 -0.328478 0.042500
Head 9.728795 -2.386963 0.795098
LeftShoulder -13.530540 -29.307583 18.073485
LeftArm 7.380136 13.582974 -8.961999
LeftForeArm 8.997677 -0.000000 7.443007
LeftHand -5.467428 -0.000000 -8.010711
LeftHandThumb1 -26.253704 0.000000 33.147579
RightShoulder -12.517120 -6.001678 -7.175523
RightArm 9.175051 26.859367 11.016950
RightForeArm -30.079861 -0.000000 15.651095
RightHand -7.285046 -0.000000 3.076703
RightHandThumb1 -24.326973 -0.000000 -32.862282
LeftUpLeg 4.016451 8.827363 1.657000
LeftLeg -6.848684 -0.000000 0.000000
LeftFoot -21.532069 28.527703 -11.921366
LeftToeBase 27.442460 -0.000000 -0.000000
RightUpLeg 3.457891 -7.948329 -2.884907
RightLeg -3.276015 -0.000000 0.000000
RightFoot -22.809536 -23.268230 15.827409
RightToeBase 25.397717 -0.000000 -0.000000
119
root 18.808181 35.282074 -22.016730 -174.061915 -2.207010 180.300003
Spine -17.586699 -0.329458 0.046060
Head 9.647592 -2.432908 0.714348
LeftShoulder -13.636134 -28.812229 17.765668
LeftArm 7.459387 14.061263 -9.068890
LeftForeArm 8.991973 -0.000000 9.259088
LeftHand -5.339941 -0.000000 -8.536679
LeftHandThumb1 -26.253704 0.000000 33.147579
RightShoulder -12.610928 -6.356028 -6.856018
RightArm 9.026153 26.188586 11.170157
RightForeArm -29.527211 -0.000000 17.535717
RightHand -7.158061 -0.000000 3.083275
RightHandThumb1 -24.326973 -0.000000 -32.862282
LeftUpLeg 4.008134 8.842805 1.665341
LeftLeg -6.848134 -0.000000 0.000000
LeftFoot -21.515158 28.520177 -11.894720
LeftToeBase 27.468352 -0.000000 -0.000000
RightUpLeg 3.452981 -7.937002 -2.874321
RightLeg -3.272962 -0.000000 0.000000
RightFoot -22.812741 -23.261778 15.817203
RightToeBase 25.418429 -0.000000 -0.000000
120
root 18.811121 35.282022 -22.007593 -174.076724 -2.219994 180.306645
Spine -17.507876 -0.347969 0.051520
Head 9.576934 -2.450290 0.662594
LeftShoulder -13.728306 -28.370212 17.501409
LeftArm 7.419583 14.435553 -9.246416
LeftForeArm 9.049996 -0.000000 11.229450
LeftHand -4.644683 0.000000 -9.420367
LeftHandThumb1 -26.253704 0.000000 33.147579
RightShoulder -12.586897 -6.606219 -6.558754
RightArm 8.679462 25.445268 11.288466
RightForeArm -29.052034 -0.000000 19.586591
RightHand -6.929799 0.000000 3.101238
RightHandThumb1 -24.326973 -0.000000 -32.862282
LeftUpLeg 4.008574 8.841601 1.676703
LeftLeg -6.855609 -0.000000 0.000000
LeftFoot -21.503743 28.525120 -11.872793
LeftToeBase 27.502737 -0.000000 -0.000000
RightUpLeg 3.447730 -7.942219 -2.859124
RightLeg -3.260289 -0.000000 0.000000
RightFoot -22.826368 -23.321502 15.734997
RightToeBase 25.454741 -0.000000 -0.000000
121
root 18.814838 35.282120 -21.998436 -174.085791 -2.220407 180.318716
Spine -17.436755 -0.343509 0.077006
Head 9.512035 -2.446144 0.562187
LeftShoulder -13.835535 -27.909697 17.208386
LeftArm 7.402519 15.120028 -9.363608
LeftForeArm 8.945229 -0.000000 13.365215
LeftHand -4.387397 0.000000 -10.152040
LeftHandThumb1 -26.253704 0.000000 33.147579
RightShoulder -12.770477 -6.999616 -6.231022
RightArm 8.686287 24.947619 11.595823
RightForeArm -28.928774 -0.000000 21.684492
RightHand -6.672907 0.000000 3.126988
RightHandThumb1 -24.326973 -0.000000 -32.862282
LeftUpLeg 3.999021 8.851662 1.691268
LeftLeg -6.850966 -0.000000 0.000000
LeftFoot -21.498696 28.525891 -11.854287
LeftToeBase 27.495238 -0.000000 -0.000000
RightUpLeg 3.436545 -7.945379 -2.840369
RightLeg -3.252327 -0.000000 0.000000
RightFoot -22.824616 -23.337306 15.721482
RightToeBase 25.471299 -0.000000 -0.000000
122
root 18.817518 35.281225 -21.990365 -174.100000 -2.234475 180.322760
Spine -17.364844 -0.356488 0.091785
Head 9.454483 -2.438881 0.484696
LeftShoulder -13.956949 -27.480893 16.969938
LeftArm 7.294850 15.709165 -9.581481
LeftForeArm 9.082540 -0.000000 15.687732
LeftHand -3.902377 0.000000 -10.930913
LeftHandThumb1 -26.253704 0.000000 33.147579
RightShoulder -12.907785 -7.357992 -5.922275
RightArm 8.612345 24.504845 11.944044
RightForeArm -28.973966 -0.000000 23.915158
RightHand -6.191694 -0.000000 3.215647
RightHandThumb1 -24.326973 -0.000000 -32.862282
LeftUpLeg 4.000833 8.852296 1.699507
LeftLeg -6.859104 -0.000000 0.000000
LeftFoot -21.478295 28.538030 -11.803516
LeftToeBase 27.496557 -0.000000 -0.000000
RightUpLeg 3.440976 -7.962257 -2.832040
RightLeg -3.255604 -0.000000 0.000000
RightFoot -22.816662 -23.341991 15.696015
RightToeBase 25.415476 -0.000000 -0.000000
123
root 18.821155 35.280311 -21.981687 -174.105673 -2.236751 180.333946
Spine -17.302962 -0.376249 0.124105
Head 9.398123 -2.399060 0.384422
LeftShoulder -14.088568 -26.965758 16.725196
LeftArm 7.141994 16.147163 -9.848641
LeftForeArm 9.323412 0.000000 18.204111
LeftHand -3.542542 -0.000000 -11.458370
LeftHandThumb1 -26.253704 0.000000 33.147579
RightShoulder -12.950666 -7.535421 -5.786619
RightArm 8.359862 23.911205 12.444986
RightForeArm -29.302902 0.000000 26.420797
RightHand -5.856251 -0.000000 3.675317
RightHandThumb1 -24.326973 -0.000000 -32.862282
LeftUpLeg 3.991070 8.867449 1.713357
LeftLeg -6.862961 -0.000000 0.000000
LeftFoot -21.467226 28.547822 -11.756550
LeftToeBase 27.504724 -0.000000 -0.000000
RightUpLeg 3.438738 -7.968560 -2.815653
RightLeg -3.268722 -0.000000 0.000000
RightFoot -22.795917 -23.349658 15.653164
RightToeBase 25.435369 -0.000000 -0.000000
124
root 18.822933 35.279534 -21.974589 -174.123666 -2.239678 180.342429
Spine -17.227708 -0.384686 0.156259
Head 9.336949 -2.382553 0.281512
LeftShoulder -14.219959 -26.419435 16.477070
LeftArm 7.006061 16.592425 -10.141811
LeftForeArm 9.416531 -0.000000 20.796500
LeftHand -2.979290 -0.000000 -12.255858
LeftHandThumb1 -26.253704 0.000000 33.147579
RightShoulder -13.110739 -7.928286 -5.530171
RightArm 8.331886 23.423623 12.929825
RightForeArm -29.493695 -0.000000 28.844812
RightHand -5.527257 -0.000000 3.711006
RightHandThumb1 -24.326973 -0.000000 -32.862282
LeftUpLeg 4.007749 8.832492 1.724295
LeftLeg -6.881470 -0.000000 0.000000
LeftFoot -21.460239 28.589152 -11.739399
LeftToeBase 27.522661 -0.000000 -0.000000
RightUpLeg 3.454846 -7.971482 -2.814802
RightLeg -3.282171 -0.000000 0.000000
RightFoot -22.719436 -23.333479 15.532075
RightToeBase 25.419317 -0.000000 -0.000000
125
root 18.826510 35.279045 -21.965663 -174.134130 -2.245705 180.352862
Spine -17.151250 -0.411585 0.177234
Head 9.253907 -2.361929 0.223929
LeftShoulder -14.409479 -25.845679 16.276521
LeftArm 6.890897 17.039115 -10.474657
LeftForeArm 9.712001 -0.000000 23.608680
LeftHand -2.801627 -0.000000 -13.088111
LeftHandThumb1 -26.253704 0.000000 33.147579
RightShoulder -13.258961 -8.376888 -5.253015
RightArm 8.277823 22.962774 13.434756
RightForeArm -29.756878 -0.000000 31.395714
RightHand -4.997152 0.000000 3.975982
RightHandThumb1 -24.326973 -0.000000 -32.862282
LeftUpLeg 4.016057 8.851003 1.737905
LeftLeg -6.914095 -0.000000 0.000000
LeftFoot -21.432662 28.594230 -11.703580
LeftToeBase 27.540962 -0.000000 -0.000000
RightUpLeg 3.461138 -7.976737 -2.798086
RightLeg -3.300536 -0.000000 0.000000
RightFoot -22.712857 -23.342008 15.525834
RightToeBase 25.394435 -0.000000 -0.000000
